<svg width="9" height="11" viewBox="0 0 9 11" fill="none" xmlns="http://www.w3.org/2000/svg">
<path d="M8.4375 10.5H0.5625C0.234375 10.5 0 10.2656 0 9.9375C0 9.63281 0.234375 9.375 0.5625 9.375H8.4375C8.74219 9.375 9 9.63281 9 9.9375C9 10.2656 8.74219 10.5 8.4375 10.5ZM4.07812 7.33594L1.07812 4.14844C0.867188 3.91406 0.890625 3.5625 1.10156 3.35156C1.33594 3.14062 1.6875 3.14062 1.89844 3.375L3.9375 5.53125V3.5625V0.5625C3.9375 0.257812 4.17188 0 4.5 0C4.80469 0 5.0625 0.257812 5.0625 0.5625V3.5625V5.53125L7.07812 3.375C7.28906 3.14062 7.64062 3.14062 7.875 3.35156C8.10938 3.5625 8.10938 3.91406 7.89844 4.14844L4.89844 7.33594C4.78125 7.45312 4.64062 7.5 4.5 7.5C4.33594 7.5 4.19531 7.45312 4.07812 7.33594Z" fill="white"/>
</svg>
